<svg width="28" height="34" viewBox="0 0 28 34" xmlns="http://www.w3.org/2000/svg"><title>Apple</title><path d="M23.0792877 17.88919c.0439324 5.1194844 4.4984127 6.811843 4.5529954 6.8303967-.0266257.1192735-.6975935 2.4424565-2.3683564 4.8014216-1.3951869 2.0766845-2.8569381 4.1069848-5.1786995 4.1440921-2.2551971.0516852-3.0140297-1.3212855-5.6007168-1.3212855-2.6106503 0-3.4187404 1.2841782-5.5820789 1.3729707-2.21126472.0808409-3.90066565-2.2171622-5.34644138-4.2752929-2.8902202-4.2024036-5.14009218-11.8425349-2.1233999-17.041535C2.89434136 9.850155 5.55957434 8.20815625 8.40852468 8.16442263c2.2139273-.0450589 4.2681004 1.48826843 5.6286738 1.48826843 1.3339478 0 3.87404-1.83416163 6.492678-1.55983254 1.0956477.03180627 4.2135177.43070992 6.2250896 3.35026058-.1624168.096744-3.7142857 2.1747537-3.6756784 6.4460709zM18.7255293 5.90727467c-1.2141321 1.42598115-3.1564773 2.5166712-5.0482335 2.3761935-.2476191-1.9242794.7109063-3.97048283 1.7839221-5.21887897C16.6740188 1.64788488 18.780112.56249588 20.4641877.48828125c.2209934 1.9998193-.5751152 3.97048283-1.7386584 5.41899342z" fill-rule="nonzero" fill="#fff"/></svg>