<?xml version="1.0" encoding="UTF-8"?>
<svg width="32px" height="32px" viewBox="0 0 32 32" version="1.1" xmlns="http://www.w3.org/2000/svg" xmlns:xlink="http://www.w3.org/1999/xlink">
    <!-- Generator: Sketch 46 (44423) - http://www.bohemiancoding.com/sketch -->
    <title>Path_207</title>
    <desc>Created with Sketch.</desc>
    <defs></defs>
    <g id="Dashboard" stroke="none" stroke-width="1" fill="none" fill-rule="evenodd">
        <g id="Dashboard-1" transform="translate(-1000.000000, -23.000000)" fill-rule="nonzero" fill="#FFFFFF">
            <g id="Navigation">
                <g id="Group" transform="translate(1000.000000, 23.000000)">
                    <g id="Group-8">
                        <path d="M16.0007293,2.8604362e-15 C9.52938285,-0.000200400918 3.69513544,3.89789042 1.21851951,9.87657742 C-1.25809641,15.8552644 0.110653366,22.7371304 4.68651546,27.3131342 C9.26237756,31.889138 16.1442011,33.2581009 22.1229648,30.7816701 C28.1017285,28.3052393 32,22.4711126 32,15.9997662 C31.997812,7.16443924 24.8360562,0.00246158497 16.0007293,2.8604362e-15 Z M16.0007293,4.80012805 C18.651573,4.80122255 20.799696,6.95089814 20.7988752,9.60174198 C20.7980544,12.2525858 18.6486006,14.4009307 15.9977567,14.4003836 C13.3469128,14.3998365 11.198346,12.2506046 11.1986193,9.59976062 C11.1970374,8.32590514 11.7025438,7.10380468 12.6035287,6.20328458 C13.5045136,5.30276447 14.7268748,4.79788876 16.0007293,4.80012805 Z M16.0007293,27.5194789 C12.1394822,27.5190891 8.53518279,25.5843942 6.40096866,22.3665752 C6.45051581,19.1826752 12.8009742,17.4386155 16.0007293,17.4386155 C19.1846292,17.4386155 25.5524292,19.1826752 25.6004899,22.3665752 C23.4662758,25.5843942 19.8619763,27.5190891 16.0007293,27.5194789 Z" id="Path_207"></path>
                    </g>
                </g>
            </g>
        </g>
    </g>
</svg>