<svg xmlns="http://www.w3.org/2000/svg" xmlns:xlink="http://www.w3.org/1999/xlink" viewBox="-8794.979 -4493 50.365 50.366">
  <defs>
    <style>
      .cls-1 {
        clip-path: url(#clip-path);
      }
    </style>
    <clipPath id="clip-path">
      <path id="Path_168" data-name="Path 168" d="M0,0H50.365V50.366H0Z"/>
    </clipPath>
  </defs>
  <g id="Lock" class="cls-1" transform="translate(-8794.979 -4493)">
    <path id="Path_167" data-name="Path 167" fill="#2d2e2e" d="M20.788,34.577a4.2,4.2,0,1,0-4.2-4.2A4.209,4.209,0,0,0,20.788,34.577ZM33.38,15.69h-2.1v-4.2a10.493,10.493,0,1,0-20.986,0v4.2H8.2a4.209,4.209,0,0,0-4.2,4.2V40.873a4.209,4.209,0,0,0,4.2,4.2H33.38a4.209,4.209,0,0,0,4.2-4.2V19.887A4.209,4.209,0,0,0,33.38,15.69Zm-19.1-4.2a6.506,6.506,0,1,1,13.011,0v4.2H14.283Zm19.1,29.38H8.2V19.887H33.38Z" transform="translate(4.394 1.099)"/>
  </g>
</svg>
