<svg xmlns="http://www.w3.org/2000/svg" viewBox="-7167 -2140.544 34 34">
  <defs>
    <style>
      .cls-1 {
        <!--fill: #2d2e2e;-->
      }

      .cls-2 {
        <!--fill: none;-->
      }
    </style>
  </defs>
  <g id="PersonOutline" transform="translate(-7167 -2140.544)">
    <path id="Path_461" data-name="Path 461" fill="#2d2e2e" d="M17.088,7.108a3.436,3.436,0,1,1-3.436,3.436,3.435,3.435,0,0,1,3.436-3.436m0,14.724c4.859,0,9.979,2.389,9.979,3.436v1.8H7.108v-1.8c0-1.047,5.121-3.436,9.979-3.436M17.088,4a6.544,6.544,0,1,0,6.544,6.544A6.542,6.542,0,0,0,17.088,4Zm0,14.724C12.72,18.724,4,20.916,4,25.268v4.908H30.176V25.268C30.176,20.916,21.456,18.724,17.088,18.724Z" transform="translate(0.068 0.068)"/>
    <path id="Path_462" data-name="Path 462" fill="none" d="M0,0H34V34H0Z"/>
  </g>
</svg>
