<?xml version="1.0" standalone="no"?>
<!DOCTYPE svg PUBLIC "-//W3C//DTD SVG 20010904//EN"
 "http://www.w3.org/TR/2001/REC-SVG-20010904/DTD/svg10.dtd">
<svg version="1.0" xmlns="http://www.w3.org/2000/svg"
 width="768.000000pt" height="768.000000pt" viewBox="0 0 768.000000 768.000000"
 preserveAspectRatio="xMidYMid meet">
<metadata>
Created by potrace 1.11, written by Peter Selinger 2001-2013
</metadata>
<g transform="translate(0.000000,768.000000) scale(0.100000,-0.100000)"
fill="#000000" stroke="none">
<path d="M30 6570 c14 -11 30 -24 35 -28 6 -4 32 -23 60 -42 27 -19 56 -40 65
-47 8 -7 47 -35 85 -63 39 -28 120 -87 180 -131 61 -44 164 -119 230 -167 66
-47 121 -90 123 -94 2 -5 8 -8 14 -8 5 0 28 -15 51 -34 23 -18 75 -57 116 -86
41 -29 79 -56 85 -61 6 -5 47 -35 91 -66 44 -32 85 -61 90 -66 6 -4 51 -37
100 -73 50 -35 98 -71 108 -79 9 -8 17 -12 17 -8 0 4 6 0 13 -8 6 -8 53 -44
102 -79 50 -36 95 -68 100 -73 6 -4 141 -102 300 -217 160 -116 299 -217 310
-226 11 -8 68 -50 126 -92 59 -42 117 -85 130 -95 13 -9 193 -140 399 -290
l375 -272 2166 -1 c1783 0 2166 2 2162 13 -3 7 -11 13 -19 13 -8 0 -14 5 -14
10 0 6 -5 10 -11 10 -6 0 -27 13 -47 30 -40 32 -126 96 -277 205 -54 39 -103
76 -110 83 -8 6 -18 12 -23 12 -6 0 -12 3 -14 8 -1 4 -37 32 -78 62 -41 30
-79 58 -85 63 -5 4 -55 40 -110 80 -55 39 -105 76 -111 82 -7 5 -22 18 -35 27
-45 31 -294 212 -304 220 -5 5 -41 31 -80 59 -38 29 -71 56 -73 60 -2 5 -8 9
-13 9 -8 0 -77 48 -139 97 -8 7 -91 68 -185 135 -93 68 -231 169 -305 224 -74
55 -218 160 -320 234 -169 123 -265 194 -297 220 -7 6 -17 10 -23 10 -5 0 -10
4 -10 8 0 4 -12 15 -27 24 -16 9 -37 25 -48 35 -11 10 -33 27 -50 37 -16 11
-34 23 -40 28 -5 5 -44 33 -85 64 -78 57 -81 59 -170 124 -30 22 -61 44 -67
50 -7 6 -33 24 -58 41 -24 16 -47 34 -50 40 -4 5 -827 9 -2193 9 -2176 -1
-2187 -1 -2162 -20z"/>
<path d="M3135 3403 c-77 -56 -144 -106 -150 -111 -5 -4 -28 -21 -50 -37 -22
-17 -42 -32 -45 -35 -3 -3 -36 -28 -75 -55 -38 -27 -72 -52 -75 -55 -3 -3 -27
-22 -55 -41 -27 -18 -52 -37 -55 -40 -3 -3 -61 -47 -130 -97 -69 -50 -130 -95
-135 -100 -6 -4 -44 -33 -85 -62 -41 -30 -80 -59 -86 -65 -6 -5 -22 -17 -34
-25 -12 -8 -44 -32 -70 -52 -26 -21 -53 -38 -59 -38 -6 0 -11 -4 -11 -9 0 -5
-16 -19 -35 -31 -20 -12 -41 -27 -48 -34 -6 -6 -41 -32 -77 -58 -36 -26 -69
-51 -75 -56 -5 -4 -53 -39 -105 -77 -52 -38 -99 -73 -105 -78 -60 -48 -238
-177 -245 -177 -5 0 -10 -4 -12 -8 -1 -4 -25 -24 -53 -45 -27 -20 -59 -43 -70
-51 -98 -75 -136 -103 -155 -116 -34 -24 -283 -209 -302 -225 -9 -7 -29 -22
-45 -32 -15 -10 -35 -23 -43 -30 -63 -51 -353 -263 -360 -263 -5 0 -10 -4 -12
-8 -1 -5 -64 -53 -138 -108 l-134 -99 2149 -3 c1182 -1 2151 2 2154 6 3 5 80
61 171 125 91 64 172 123 181 132 9 8 21 15 27 15 5 0 12 3 14 8 3 7 6 9 109
82 35 24 69 48 74 52 6 5 114 83 240 173 127 90 235 168 240 173 6 4 37 27 70
50 71 49 375 267 390 279 6 4 73 53 150 107 77 55 142 102 145 106 3 3 22 16
43 29 21 13 43 28 50 34 7 7 35 28 62 46 28 19 52 38 55 41 3 4 15 13 28 19
13 7 31 19 40 27 15 13 80 61 139 102 105 73 249 176 253 181 3 3 25 20 50 37
38 26 372 264 575 410 91 66 134 97 202 146 l62 44 -2202 0 -2202 0 -140 -103z"/>
</g>
</svg>
