<svg width="23" height="23" viewBox="0 0 23 23" xmlns="http://www.w3.org/2000/svg"><title>instagram</title><g fill="none" fill-rule="evenodd"><path d="M11.4818818.03623632c3.1182867 0 3.509337.01313567 4.7339738.06910066 1.2221203.055814 2.0567637.24987965 2.7870766.53368052.7550744.29341357 1.3953501.68602408 2.033663 1.324337.6383129.6383129 1.0309234 1.27868926 1.324337 2.03371333.2839015.73036324.4779671 1.56500657.5337308 2.78712692.0559147 1.22463676.0690503 1.61558643.0690503 4.73387305 0 3.1183873-.0131356 3.509337-.0690503 4.7339738-.0557637 1.2221203-.2498293 2.0567637-.5337308 2.7871269-.2934136.7550241-.6860241 1.3954004-1.324337 2.0337133-.6383129.6383129-1.2785886 1.0309235-2.033663 1.324337-.7303129.2838009-1.5649563.4778665-2.7870766.5336805C14.9912188 22.9867637 14.6001685 23 11.4818818 23c-3.1182866 0-3.5092866-.0132363-4.73392338-.0691007-1.22217067-.055814-2.056814-.2498796-2.78707658-.5336805-.7550744-.2934135-1.39540044-.6860241-2.03371335-1.324337-.63831292-.6383129-1.03092342-1.2786892-1.32428666-2.0337133-.28395186-.7303632-.4780175-1.5650066-.53373086-2.7871269-.05591466-1.2246368-.06910065-1.6155865-.06910065-4.7339738 0-3.11828662.013186-3.5092363.06910065-4.73387305.05571335-1.22212035.249779-2.05676368.53373086-2.78712692.29336324-.75502407.68597374-1.39540043 1.32428665-2.03371334.6383129-.63831292 1.27863894-1.03092343 2.03371334-1.324337C4.69114442.35521664 5.52578774.161151 6.74795842.10533698 7.9725952.04937198 8.3635952.03623632 11.4818818.03623632z" fill="#181919"/><path d="M11.4818818 15.3453786c-2.1137352 0-3.82731068-1.7135252-3.82731068-3.8273108 0-2.1137352 1.7135755-3.82726036 3.82731068-3.82726036 2.1137856 0 3.8273108 1.71352516 3.8273108 3.82726036 0 2.1137856-1.7135252 3.8273108-3.8273108 3.8273108m0-9.72336328c-3.2562866 0-5.89605248 2.6398162-5.89605248 5.89605248 0 3.2563873 2.63976587 5.8961029 5.89605248 5.8961029 3.2562867 0 5.8960526-2.6397156 5.8960526-5.8961029 0-3.2562363-2.6397659-5.89605248-5.8960526-5.89605248" fill="#fff"/><path d="M17.610954 6.76688184c-.7609124 0-1.3778358-.61692342-1.3778358-1.3778359 0-.7609628.6169234-1.37783587 1.3778358-1.37783587.7609628 0 1.3778359.61687308 1.3778359 1.37783588 0 .76091247-.6168731 1.3778359-1.3778359 1.3778359z" fill="#fff"/></g></svg>