<svg width="23" height="23" viewBox="0 0 23 23" xmlns="http://www.w3.org/2000/svg"><title>twitter</title><path d="M7.23304 20.6888515c8.67928 0 13.42648-7.19072 13.42648-13.42648 0-.20424 0-.40756-.0138-.60996.9235249-.668002 1.720727-1.49511095 2.35428-2.4426-.8612313.38161764-1.7748371.63188237-2.71032.74244.9850845-.5897365 1.7223536-1.51728976 2.0746-2.61004-.9262951.5496589-1.9396856.93703107-2.99644 1.1454-1.4627238-1.55535725-3.7869782-1.9360364-5.6694547-.92857446C11.8159089 3.566499 10.843373 5.71155118 11.32612 7.7913715c-3.79417592-.19021042-7.32920228-1.98230258-9.72532-4.93028-1.25246706 2.15615316-.61273115 4.91451073 1.46096 6.29924-.7509581-.02225705-1.48554298-.22483587-2.14176-.59064v.0598c.00061468 2.2462655 1.58401137 4.1809724 3.7858 4.62576-.69471997.1894649-1.42362586.2171608-2.13072.08096.6181921 1.922269 2.3897686 3.2391212 4.40864 3.27704-1.67096376 1.3132374-3.73514525 2.0261415-5.8604 2.024-.37544872-.0007208-.75053226-.0234531-1.12332-.06808 2.15798507 1.3848544 4.66892033 2.1194196 7.23304 2.116" fill-rule="nonzero" fill="#181919"/></svg>