<svg xmlns="http://www.w3.org/2000/svg" xmlns:xlink="http://www.w3.org/1999/xlink" viewBox="554 134 90 90">
        <defs>
          <style>
            .cls-1 {
              clip-path: url(#clip-Mountain);
            }

            .cls-2 {
              fill: #2593ff;
            }

            .cls-3 {
              fill: none;
            }

            .cls-4 {
              fill: #ffbf25;
            }

            .cls-5 {
              fill: #fff;
            }
          </style>
          <clipPath id="clip-Mountain">
            <rect x="554" y="134" width="90" height="90"/>
          </clipPath>
        </defs>
        <g id="Mountain" class="cls-1">
          <rect class="cls-5" x="554" y="134" width="90" height="90"/>
          <g id="Symbol_1" data-name="Symbol 1" transform="translate(-564 -2841)">
            <circle id="Ellipse_43" data-name="Ellipse 43" class="cls-2" cx="30.994" cy="30.994" r="30.994" transform="translate(1138.513 2979)"/>
            <g id="Symbol_82_1" data-name="Symbol 82 – 1" transform="translate(1117.566 2984.139)">
              <g id="Symbol_69_1" data-name="Symbol 69 – 1" transform="translate(0 0)">
                <g id="Walking" transform="translate(0 38.196)">
                  <path id="Path_183" data-name="Path 183" class="cls-3" d="M0,0H21.267V19.777H0Z"/>
                  <path id="Path_184" data-name="Path 184" class="cls-2" d="M12.646,4.8a1.719,1.719,0,0,0,1.772-1.648,1.777,1.777,0,0,0-3.545,0A1.719,1.719,0,0,0,12.646,4.8ZM9.367,7.6,6.886,19.217H8.747l1.6-6.592L12.2,14.272v4.944h1.772v-6.18l-1.861-1.648.532-2.472a6.7,6.7,0,0,0,4.874,2.06V9.328a4.435,4.435,0,0,1-3.81-1.978l-.886-1.318a1.856,1.856,0,0,0-1.506-.824c-.266,0-.443.082-.709.082L6,7.1v3.873H7.772v-2.8l1.6-.577" transform="translate(-0.683 -0.264)"/>
                </g>
                <g id="Mountain-2" data-name="Mountain" transform="translate(14.041)">
                  <path id="Path_171" data-name="Path 171" class="cls-3" d="M0,0H76.393V76.393H0Z"/>
                  <path id="Path_172" data-name="Path 172" class="cls-4" d="M42.379,6,30.443,21.915l9.072,12.1-5.093,3.82c-5.379-7.162-14.324-19.1-14.324-19.1L1,44.2H71.027Z" transform="translate(2.183 13.098)"/>
                </g>
              </g>
              <rect id="Rectangle_213" data-name="Rectangle 213" class="cls-4" width="13.168" height="21.519" transform="translate(39.853 42.941) rotate(-50)"/>
            </g>
          </g>
        </g>
      </svg>
