<svg xmlns="http://www.w3.org/2000/svg" xmlns:xlink="http://www.w3.org/1999/xlink" viewBox="394 134 90 90">
  <defs>
    <style>
      .cls-1 {
        clip-path: url(#clip-Recommendation);
      }

      .cls-2 {
        fill: #2593ff;
      }

      .cls-3 {
        fill: none;
      }

      .cls-4 {
        fill: #fff;
      }
    </style>
    <clipPath id="clip-Recommendation">
      <rect x="394" y="134" width="90" height="90"/>
    </clipPath>
  </defs>
  <g id="Recommendation" class="cls-1">
    <rect class="cls-4" x="394" y="134" width="90" height="90"/>
    <g id="Group_2" data-name="Group 2" transform="translate(394.799 135.842)">
      <g id="Clipboard" transform="translate(0 0)">
        <path id="Path_138" data-name="Path 138" class="cls-2" d="M61.772,7.346H46.418a10.976,10.976,0,0,0-20.717,0H10.346A7.368,7.368,0,0,0,3,14.693V73.465a7.368,7.368,0,0,0,7.346,7.347H61.772a7.368,7.368,0,0,0,7.346-7.347V14.693A7.368,7.368,0,0,0,61.772,7.346Zm-25.713,0a3.673,3.673,0,1,1-3.673,3.673A3.684,3.684,0,0,1,36.059,7.346ZM61.772,73.465H10.346V14.693h7.346v11.02H54.425V14.693h7.346Z" transform="translate(8.02 0)"/>
        <path id="Path_139" data-name="Path 139" class="cls-3" d="M0,0H88.158V88.158H0Z"/>
      </g>
      <g id="ic_trending_up_black_24px" transform="translate(23.826 31.672)">
        <path id="Path_187" data-name="Path 187" class="cls-2" d="M25.458,6,29.3,9.837l-8.177,8.177-6.7-6.7L2,23.745l2.363,2.363L14.416,16.054l6.7,6.7,10.556-10.54,3.837,3.837V6Z" transform="translate(1.351 4.054)"/>
        <path id="Path_188" data-name="Path 188" class="cls-3" d="M0,0H40.214V40.214H0Z"/>
      </g>
    </g>
  </g>
</svg>
