<svg xmlns="http://www.w3.org/2000/svg" xmlns:xlink="http://www.w3.org/1999/xlink" viewBox="234 134 90 90">
  <defs>
    <style>
      .cls-1 {
        clip-path: url(#clip-ViewDashboard);
      }

      .cls-2 {
        fill: none;
      }

      .cls-3 {
        fill: #2593ff;
      }

      .cls-4 {
        fill: #fff;
      }
    </style>
    <clipPath id="clip-ViewDashboard">
      <rect x="234" y="134" width="90" height="90"/>
    </clipPath>
  </defs>
  <g id="ViewDashboard" class="cls-1">
    <rect class="cls-4" x="234" y="134" width="90" height="90"/>
    <g id="DevicesCool" transform="translate(235.034 133.546)">
      <path id="Path_196" data-name="Path 196" class="cls-2" d="M0,0H87.466V87.466H0Z"/>
      <path id="Path_197" data-name="Path 197" class="cls-3" d="M83.821,34.836,65.6,34.8a3.655,3.655,0,0,0-3.644,3.644v32.8A3.655,3.655,0,0,0,65.6,74.888H83.821a3.655,3.655,0,0,0,3.644-3.644v-32.8A3.624,3.624,0,0,0,83.821,34.836Zm0,32.763H65.6V42.089H83.821ZM72.888,2H7.289A7.264,7.264,0,0,0,0,9.289V53.022a7.287,7.287,0,0,0,7.289,7.289H32.8V67.6H25.511v7.289H54.666V67.6H47.377V60.311h7.289V53.022H7.289V9.289h65.6V27.511h7.289V9.289A7.287,7.287,0,0,0,72.888,2ZM43.624,27.511,40.088,16.578,36.553,27.511H25.511l9,6.414L31.087,44.53l9-6.56,9,6.56L45.664,33.925l9-6.414Z" transform="translate(0 5.289)"/>
    </g>
  </g>
</svg>
