<svg xmlns="http://www.w3.org/2000/svg" viewBox="-4081 -2726 77.5 77.5">
  <defs>
    <style>
      .cls-1 {
        <!--fill: #fff;-->
      }

      .cls-2 {
        <!--fill: none;-->
      }
    </style>
  </defs>
  <g id="Account" transform="translate(-4081 -2726)">
    <path id="Path_207" data-name="Path 207" fill="#2d2e2e" d="M34.292,2A32.292,32.292,0,1,0,66.583,34.292,32.3,32.3,0,0,0,34.292,2Zm0,9.688A9.688,9.688,0,1,1,24.6,21.375,9.675,9.675,0,0,1,34.292,11.688Zm0,45.854a23.252,23.252,0,0,1-19.375-10.4c.1-6.426,12.917-9.946,19.375-9.946,6.426,0,19.278,3.52,19.375,9.946A23.252,23.252,0,0,1,34.292,57.542Z" transform="translate(4.458 4.458)"/>
    <path id="Path_208" data-name="Path 208" fill="none" d="M0,0H77.5V77.5H0Z"/>
  </g>
</svg>
