<svg xmlns="http://www.w3.org/2000/svg" viewBox="-4727.288 -1995.451 113.8 96.467">
  <defs>
    <style>
      .cls-1 {
        <!--fill: #4a5157;-->
      }
    </style>
  </defs>
  <g id="Group_451" data-name="Group 451" transform="translate(-5792 -2740)">
    <path id="Union_17" data-name="Union 17" class="cls-1" fill="#4a5157" d="M0,51.939V46.89H4.328V18.756H0v-5.05l12.264-2.425V6.673L31.506,0,50.5,6.673v4.549L62.76,13.706v5.05H58.432V46.89H62.76v5.05Zm51.579-5.05V18.756h-40.4V46.89H15.87V20.379h7.214V46.89h4.689V20.379h7.214V46.89h4.689V20.379H46.89V46.89Z" transform="translate(1115.752 789.076)"/>
    <path id="Union_16" data-name="Union 16" class="cls-1" fill="#4a5157" d="M0,63.608V58.715H4.369V37.92h8.737V58.715h3.845V39.843h5.941V58.715h3.844V39.843h5.941V58.715h4.543V39.843h5.941V58.715h4.543V37.92H0V33.027l15.2-3.12V24.989H12.757V19.747h2.806A14.948,14.948,0,0,1,28.833,7.238V0H31.8V7.238a14.949,14.949,0,0,1,13.27,12.509h2.632v5.242H45.26v4.875h.349l15.2,3.163V37.92H56.444V58.715h4.369v4.893Z" transform="translate(1064.712 744.549)"/>
  </g>
</svg>
