<svg xmlns="http://www.w3.org/2000/svg" viewBox="-4717.742 -2304.357 101.882 101.881">
  <defs>
    <style>
      .cls-1, .cls-3, .cls-4 {
        <!--fill: none;-->
      }

      .cls-2 {
        <!--fill: #4a5157;-->
      }

      .cls-3 {
        <!--stroke: #4a5157;
        stroke-width: 4px;-->
      }

      .cls-4 {
        <!--stroke: #fff;
        stroke-width: 2px;-->
      }

      .cls-5 {
        <!--fill: #fff;-->
      }

      .cls-6 {
        <!--stroke: none;-->
      }
    </style>
  </defs>
  <g id="Group_450" data-name="Group 450" transform="translate(-5792 -2740)">
    <g id="Group_441" data-name="Group 441" transform="translate(1)">
      <path id="Path_415" data-name="Path 415" fill="none" d="M0,0H68.037V68.037H0ZM28.349,14.174H39.688v5.67H28.349Zm0,0H39.688v5.67H28.349Z" transform="translate(1107.103 469.487)"/>
      <path id="Path_416" data-name="Path 416" fill="#4a5157" d="M24.679,39.853V37.018H4.863L4.835,48.358a5.65,5.65,0,0,0,5.67,5.67H50.193a5.65,5.65,0,0,0,5.67-5.67V37.018H36.018v2.835ZM53.028,14.339H41.66V8.67L35.99,3H24.651l-5.67,5.67v5.67H7.67A5.686,5.686,0,0,0,2,20.009v8.5a5.65,5.65,0,0,0,5.67,5.67H24.679v-5.67H36.018v5.67H53.028a5.686,5.686,0,0,0,5.67-5.67v-8.5A5.686,5.686,0,0,0,53.028,14.339Zm-17.009,0H24.679V8.67H36.018Z" transform="translate(1110.773 474.992)"/>
    </g>
    <g id="Group_389" data-name="Group 389" transform="translate(1074.258 435.643)">
      <path id="Rectangle_379" data-name="Rectangle 379" fill="#4a5157" d="M21,0h0A21,21,0,0,1,42,21v20.6a10.5,10.5,0,0,1-10.5,10.5h-21A10.5,10.5,0,0,1,0,41.606V21A21,21,0,0,1,21,0Z" transform="translate(0 6.538)"/>
      <g id="Ellipse_60" data-name="Ellipse 60" fill="none" stroke="#4a5157" stroke-width="4px" transform="translate(14.463)">
        <ellipse stroke="none" cx="6.637" cy="6.637" rx="6.637" ry="6.637"/>
        <ellipse fill="none" cx="6.637" cy="6.637" rx="4.637" ry="4.637"/>
      </g>
      <g id="Rectangle_380" data-name="Rectangle 380" stroke="#fff" stroke-width="2px" transform="translate(5.349 32.69)">
        <path stroke="none" d="M16.048,0h0A16.048,16.048,0,0,1,32.1,16.048V27.341a0,0,0,0,1,0,0H0a0,0,0,0,1,0,0V16.048A16.048,16.048,0,0,1,16.048,0Z"/>
        <path fill="none" d="M16.048,1h0A15.048,15.048,0,0,1,31.1,16.048V26.086a.255.255,0,0,1-.255.255H1.255A.255.255,0,0,1,1,26.086V16.048A15.048,15.048,0,0,1,16.048,1Z"/>
      </g>
      <path id="Rectangle_381" data-name="Rectangle 381" fill="none" stroke="#fff" stroke-width="2px" d="M16.642,0h0A16.642,16.642,0,0,1,33.285,16.642v3.17a0,0,0,0,1,0,0H0a0,0,0,0,1,0,0v-3.17A16.642,16.642,0,0,1,16.642,0Z" transform="translate(4.656 11.194)"/>
      <rect id="Rectangle_382" data-name="Rectangle 382" fill="#4a5157" width="42.002" height="2.774" transform="translate(0 29.751)"/>
      <rect id="Rectangle_383" data-name="Rectangle 383" fill="#fff" width="14.265" height="7.925" rx="3.962" transform="translate(13.869 19.218)"/>
    </g>
  </g>
</svg>
