<svg xmlns="http://www.w3.org/2000/svg" viewBox="-6671 622 32 32">
  <defs>
    <style>
      .cls-1 {
        fill: #2d2e2e;
      }

      .cls-2 {
        fill: none;
      }
    </style>
  </defs>
  <g id="Calendar" transform="translate(-6671 622)">
    <path id="Path_136" data-name="Path 136" class="cls-1" d="M21.667,15.667H15v6.667h6.667ZM20.333,1V3.667H9.667V1H7V3.667H5.667A2.655,2.655,0,0,0,3.013,6.333L3,25a2.666,2.666,0,0,0,2.667,2.667H24.333A2.674,2.674,0,0,0,27,25V6.333a2.675,2.675,0,0,0-2.667-2.667H23V1Zm4,24H5.667V10.333H24.333Z" transform="translate(1 0.333)"/>
    <path id="Path_137" data-name="Path 137" class="cls-2" d="M0,0H32V32H0Z"/>
  </g>
</svg>
