<svg xmlns="http://www.w3.org/2000/svg" viewBox="-5024.213 -2304.357 66.044 94.393">
  <defs>
    <style>
      .cls-1 {
        <!--fill: #4a5157;-->
      }

      .cls-2, .cls-3, .cls-6 {
        <!--fill: none;-->
      }

      .cls-2 {
        <!--stroke: #4a5157;
        stroke-width: 4px;-->
      }

      .cls-3 {
        <!--stroke: #fff;
        stroke-width: 2px;-->
      }

      .cls-4 {
        <!--fill: #fff;-->
      }

      .cls-5 {
        <!--stroke: none;-->
      }
    </style>
  </defs>
  <g id="Group_442" data-name="Group 442" transform="translate(-5792 -2740)">
    <path id="Rectangle_379" data-name="Rectangle 379" fill="#4a5157" d="M33.022,0h0A33.022,33.022,0,0,1,66.044,33.022v32.4A16.511,16.511,0,0,1,49.533,81.932H16.511A16.511,16.511,0,0,1,0,65.421v-32.4A33.022,33.022,0,0,1,33.022,0Z" transform="translate(767.787 445.923)"/>
    <g id="Ellipse_60" data-name="Ellipse 60" stroke="#4a5157" stroke-width="4px" fill="none" transform="translate(790.529 435.643)">
      <ellipse stroke="none" cx="10.436" cy="10.436" rx="10.436" ry="10.436"/>
      <ellipse cx="10.436" cy="10.436" rx="8.436" ry="8.436"/>
    </g>
    <g id="Rectangle_380" data-name="Rectangle 380" fill="none" stroke="#fff" stroke-width="2px" transform="translate(776.199 487.045)">
      <path stroke="none" d="M25.234,0h0A25.234,25.234,0,0,1,50.468,25.234V42.991a0,0,0,0,1,0,0H0a0,0,0,0,1,0,0V25.234A25.234,25.234,0,0,1,25.234,0Z"/>
      <path fill="none" d="M25.234,1h0A24.234,24.234,0,0,1,49.468,25.234V41.58a.411.411,0,0,1-.411.411H1.411A.411.411,0,0,1,1,41.58V25.234A24.234,24.234,0,0,1,25.234,1Z"/>
    </g>
    <path id="Rectangle_381" data-name="Rectangle 381" stroke="#fff" stroke-width="2px" d="M26.168,0h0A26.168,26.168,0,0,1,52.337,26.168v4.984a0,0,0,0,1,0,0H0a0,0,0,0,1,0,0V26.168A26.168,26.168,0,0,1,26.168,0Z" transform="translate(775.108 453.244)"/>
    <rect id="Rectangle_382" data-name="Rectangle 382" width="66.044" height="4.361" transform="translate(767.787 482.423)"/>
    <rect id="Rectangle_383" data-name="Rectangle 383" fill="#fff" width="22.43" height="12.461" rx="4" transform="translate(789.595 465.861)"/>
  </g>
</svg>
