<?xml version="1.0" encoding="utf-8"?>
<!-- Generator: Adobe Illustrator 19.2.1, SVG Export Plug-In . SVG Version: 6.00 Build 0)  -->
<svg version="1.1" id="Layer_1" xmlns:sketch="http://www.bohemiancoding.com/sketch/ns"
	 xmlns="http://www.w3.org/2000/svg" xmlns:xlink="http://www.w3.org/1999/xlink" x="0px" y="0px" viewBox="0 0 232 36"
	 style="enable-background:new 0 0 232 36;" xml:space="preserve">
<style type="text/css">
	.st0{fill:#5DC9F3;}
</style>
<title>logo</title>
<desc>Created with Sketch.</desc>
<g id="Page-1" sketch:type="MSPage">
	<g id="logo" sketch:type="MSLayerGroup">
		<g id="Group" sketch:type="MSShapeGroup">
			<g id="Shape">
				<path class="st0" d="M16.5,14.4v-3.2c0-0.7,0.6-1.3,1.3-1.3h8.6c0.7,0,1.3,0.6,1.3,1.3v7.5c0,0.7-0.6,1.3-1.3,1.3h-3.8v-3
					c0-1.4-1.1-2.6-2.6-2.6H16.5L16.5,14.4z"/>
				<path class="st0" d="M10.9,16.3h3.8v3.1c0,1.4,1.1,2.6,2.6,2.6h3.6v3.2c0,0.7-0.6,1.3-1.3,1.3H11c-0.7,0-1.3-0.6-1.3-1.3v-7.5
					C9.6,16.9,10.2,16.3,10.9,16.3L10.9,16.3z"/>
				<path class="st0" d="M20.9,17.6v2.5h-3.1c-0.7,0-1.3-0.6-1.3-1.3v-2.5h3.1C20.3,16.3,20.9,16.9,20.9,17.6L20.9,17.6z"/>
				<path class="st0" d="M0.1,6.5v23.4c0,3.4,2.8,6.1,6.1,6.1h24.9c3.4,0,6.1-2.8,6.1-6.1V6.5c0-3.4-2.8-6.1-6.1-6.1H6.2
					C2.9,0.4,0.1,3.1,0.1,6.5L0.1,6.5z M7.8,17c0-1.4,1.1-2.6,2.6-2.6h4.3v-3.8c0-1.4,1.1-2.6,2.6-2.6H27c1.4,0,2.6,1.1,2.6,2.6v8.8
					c0,1.4-1.1,2.6-2.6,2.6h-4.3v3.8c0,1.4-1.1,2.6-2.6,2.6h-9.8c-1.4,0-2.6-1.1-2.6-2.6V17H7.8z"/>
			</g>
			<path id="CommonBond" class="st0" d="M44.5,17.4c0-1.4,0.2-2.7,0.7-3.9c0.5-1.2,1.2-2.2,2-3.1c0.9-0.9,1.9-1.6,3.1-2.1
				s2.5-0.7,3.8-0.7c0.4,0,0.9,0,1.4,0.1c0.5,0.1,1.1,0.2,1.6,0.3s1.1,0.3,1.6,0.5c0.5,0.2,1,0.5,1.3,0.8c0.4,0.3,0.7,0.7,0.9,1.1
				s0.4,0.9,0.4,1.4v1.9H59v-1.1c0-0.4-0.2-0.8-0.5-1.1s-0.7-0.6-1.2-0.8c-0.5-0.2-1-0.4-1.5-0.5c-0.5-0.1-1.1-0.2-1.5-0.2
				c-1,0-1.9,0.2-2.7,0.5c-0.8,0.4-1.6,0.8-2.2,1.5c-0.6,0.6-1.1,1.4-1.5,2.3c-0.4,0.9-0.5,1.9-0.5,3c0,1.1,0.2,2,0.5,3
				c0.4,0.9,0.8,1.7,1.5,2.4c0.6,0.7,1.4,1.2,2.2,1.6c0.8,0.4,1.8,0.6,2.8,0.6c0.5,0,0.9,0,1.4-0.1c0.4-0.1,0.8-0.2,1.2-0.3
				c0.4-0.1,0.7-0.3,1-0.4c0.3-0.2,0.6-0.3,0.9-0.5c0.6-0.4,1.2-0.8,1.6-1.3l1.5,2c-0.6,0.6-1.2,1.1-2,1.6c-0.3,0.2-0.7,0.4-1.1,0.6
				c-0.4,0.2-0.8,0.4-1.3,0.5c-0.5,0.2-1,0.3-1.5,0.4c-0.5,0.1-1.1,0.1-1.7,0.1c-1,0-1.9-0.1-2.7-0.4c-0.9-0.2-1.7-0.6-2.4-1
				s-1.4-1-2-1.6s-1.1-1.3-1.5-2.1c-0.4-0.8-0.7-1.6-0.9-2.4C44.6,19.3,44.5,18.4,44.5,17.4L44.5,17.4z M63.8,20.3
				c0-1.1,0.2-2,0.6-2.9c0.4-0.9,0.9-1.6,1.6-2.3s1.5-1.1,2.4-1.5c0.9-0.4,1.9-0.5,2.9-0.5c1,0,2,0.2,2.9,0.5s1.7,0.9,2.4,1.5
				c0.7,0.6,1.2,1.4,1.6,2.3s0.6,1.8,0.6,2.9s-0.2,2-0.6,2.9c-0.4,0.9-0.9,1.7-1.6,2.3c-0.7,0.6-1.5,1.2-2.4,1.5
				c-0.9,0.4-1.9,0.5-2.9,0.5c-1,0-2-0.2-2.9-0.5c-0.9-0.4-1.7-0.9-2.4-1.5s-1.2-1.4-1.6-2.3C64,22.3,63.8,21.4,63.8,20.3L63.8,20.3
				z M66.5,20.3c0,0.7,0.1,1.4,0.4,2c0.2,0.6,0.6,1.1,1,1.6s0.9,0.8,1.5,1c0.6,0.2,1.2,0.4,1.8,0.4c0.7,0,1.3-0.1,1.8-0.4
				s1.1-0.6,1.5-1c0.4-0.4,0.8-1,1-1.6c0.2-0.6,0.4-1.3,0.4-2s-0.1-1.4-0.4-2c-0.2-0.6-0.6-1.1-1-1.6c-0.4-0.4-0.9-0.8-1.5-1
				c-0.6-0.2-1.2-0.4-1.8-0.4c-0.7,0-1.3,0.1-1.8,0.4c-0.6,0.2-1.1,0.6-1.5,1s-0.8,1-1,1.6S66.5,19.6,66.5,20.3L66.5,20.3z M82,16.3
				c0-0.4-0.2-0.6-0.6-0.6h-1.1v-2.3h2.6c0.6,0,1,0.1,1.3,0.4c0.3,0.3,0.4,0.6,0.4,1.1v0.5c0,0.1,0,0.2,0,0.3s0,0.2,0,0.2
				c0,0.1,0,0.2,0,0.2h0.1c0.2-0.4,0.4-0.8,0.7-1.2c0.3-0.4,0.7-0.7,1.1-1c0.4-0.3,0.9-0.5,1.4-0.7c0.5-0.2,1-0.3,1.6-0.3
				c1.2,0,2.1,0.3,2.8,0.8c0.7,0.5,1.1,1.3,1.4,2.4h0.1c0.2-0.4,0.5-0.8,0.8-1.2s0.7-0.7,1.1-1c0.4-0.3,0.9-0.5,1.4-0.7
				c0.5-0.2,1-0.3,1.6-0.3c1.6,0,2.7,0.4,3.5,1.3s1.1,2.2,1.1,4v6c0,0.4,0.2,0.6,0.6,0.6h1.1v2.3h-2.6c-0.6,0-1.1-0.1-1.3-0.4
				c-0.3-0.3-0.4-0.7-0.4-1.3V19c0-0.5,0-0.9-0.1-1.4c-0.1-0.4-0.2-0.8-0.4-1.1s-0.4-0.6-0.7-0.7c-0.3-0.2-0.7-0.3-1.2-0.3
				c-0.5,0-0.9,0.1-1.3,0.3c-0.4,0.2-0.8,0.5-1.1,0.8c-0.3,0.3-0.6,0.7-0.9,1.1c-0.2,0.4-0.4,0.9-0.5,1.4C94,19.3,94,19.6,93.9,20
				s-0.1,0.6-0.1,1v6.3h-2.7V19c0-0.5,0-0.9-0.1-1.3c0-0.4-0.2-0.8-0.3-1.1c-0.2-0.3-0.4-0.6-0.7-0.8c-0.3-0.2-0.7-0.3-1.3-0.3
				c-0.5,0-1,0.1-1.4,0.3c-0.4,0.2-0.8,0.5-1.1,0.8c-0.3,0.3-0.6,0.7-0.9,1.2c-0.2,0.4-0.4,0.9-0.6,1.4c-0.1,0.3-0.1,0.6-0.1,0.9
				s0,0.6,0,0.9v6.3H82V16.3z M107.7,16.3c0-0.4-0.2-0.6-0.6-0.6h-1.1v-2.3h2.6c0.6,0,1,0.1,1.3,0.4c0.3,0.3,0.4,0.6,0.4,1.1v0.5
				c0,0.1,0,0.2,0,0.3s0,0.2,0,0.2c0,0.1,0,0.2,0,0.2h0.1c0.2-0.4,0.4-0.8,0.7-1.2c0.3-0.4,0.7-0.7,1.1-1c0.4-0.3,0.9-0.5,1.4-0.7
				c0.5-0.2,1-0.3,1.6-0.3c1.2,0,2.1,0.3,2.8,0.8c0.7,0.5,1.1,1.3,1.4,2.4h0.1c0.2-0.4,0.5-0.8,0.8-1.2c0.3-0.4,0.7-0.7,1.1-1
				c0.4-0.3,0.9-0.5,1.4-0.7c0.5-0.2,1-0.3,1.6-0.3c1.6,0,2.7,0.4,3.5,1.3c0.7,0.9,1.1,2.2,1.1,4v6c0,0.4,0.2,0.6,0.6,0.6h1.1v2.3
				h-2.6c-0.6,0-1.1-0.1-1.3-0.4c-0.3-0.3-0.4-0.7-0.4-1.3V19c0-0.5,0-0.9-0.1-1.4c-0.1-0.4-0.2-0.8-0.4-1.1s-0.4-0.6-0.7-0.7
				c-0.3-0.2-0.7-0.3-1.2-0.3c-0.5,0-0.9,0.1-1.3,0.3c-0.4,0.2-0.8,0.5-1.1,0.8c-0.3,0.3-0.6,0.7-0.9,1.1c-0.2,0.4-0.4,0.9-0.5,1.4
				c-0.1,0.3-0.1,0.6-0.2,0.9s-0.1,0.6-0.1,1v6.3h-2.7V19c0-0.5,0-0.9-0.1-1.3c0-0.4-0.2-0.8-0.3-1.1c-0.2-0.3-0.4-0.6-0.7-0.8
				s-0.7-0.3-1.3-0.3c-0.5,0-1,0.1-1.4,0.3c-0.4,0.2-0.8,0.5-1.1,0.8c-0.3,0.3-0.6,0.7-0.9,1.2c-0.2,0.4-0.4,0.9-0.6,1.4
				c-0.1,0.3-0.1,0.6-0.1,0.9s0,0.6,0,0.9v6.3h-2.7V16.3z M132,20.3c0-1.1,0.2-2,0.6-2.9c0.4-0.9,0.9-1.6,1.6-2.3s1.5-1.1,2.4-1.5
				c0.9-0.4,1.9-0.5,2.9-0.5s2,0.2,2.9,0.5s1.7,0.9,2.4,1.5s1.2,1.4,1.6,2.3c0.4,0.9,0.6,1.8,0.6,2.9s-0.2,2-0.6,2.9
				c-0.4,0.9-0.9,1.7-1.6,2.3s-1.5,1.2-2.4,1.5c-0.9,0.4-1.9,0.5-2.9,0.5s-2-0.2-2.9-0.5c-0.9-0.4-1.7-0.9-2.4-1.5s-1.2-1.4-1.6-2.3
				C132.2,22.3,132,21.4,132,20.3L132,20.3z M134.7,20.3c0,0.7,0.1,1.4,0.4,2c0.2,0.6,0.6,1.1,1,1.6c0.4,0.4,0.9,0.8,1.5,1
				c0.6,0.2,1.2,0.4,1.8,0.4c0.7,0,1.3-0.1,1.8-0.4c0.6-0.2,1.1-0.6,1.5-1s0.8-1,1-1.6c0.2-0.6,0.4-1.3,0.4-2s-0.1-1.4-0.4-2
				s-0.6-1.1-1-1.6s-0.9-0.8-1.5-1c-0.6-0.2-1.2-0.4-1.8-0.4c-0.7,0-1.3,0.1-1.8,0.4c-0.6,0.2-1.1,0.6-1.5,1c-0.4,0.4-0.8,1-1,1.6
				C134.8,18.9,134.7,19.6,134.7,20.3L134.7,20.3z M150.2,16.3c0-0.4-0.2-0.6-0.6-0.6h-1.1v-2.3h2.6c1.2,0,1.8,0.5,1.8,1.5v0.5
				c0,0.1,0,0.2,0,0.3c0,0.1,0,0.2,0,0.2c0,0.1,0,0.2,0,0.2h0.1c0.1-0.3,0.3-0.6,0.6-1c0.3-0.4,0.6-0.7,1.1-1
				c0.4-0.3,0.9-0.6,1.5-0.8s1.3-0.3,2-0.3c1.6,0,2.8,0.4,3.6,1.3s1.1,2.2,1.1,4v6c0,0.4,0.2,0.6,0.6,0.6h1.1v2.3h-2.6
				c-0.6,0-1.1-0.1-1.3-0.4c-0.3-0.3-0.4-0.7-0.4-1.3V19c0-0.5,0-0.9-0.1-1.4c-0.1-0.4-0.2-0.8-0.4-1.1c-0.2-0.3-0.4-0.6-0.8-0.7
				c-0.3-0.2-0.8-0.3-1.3-0.3c-0.5,0-1,0.1-1.5,0.2s-0.9,0.4-1.3,0.7s-0.7,0.7-1,1.1c-0.3,0.4-0.5,0.9-0.6,1.4
				c-0.1,0.3-0.2,0.6-0.2,0.9c0,0.3,0,0.6,0,1v6.5h-2.7V16.3z M167.8,10.3H166V7.9h8.3c0.8,0,1.6,0.1,2.3,0.3s1.3,0.5,1.8,1
				c0.5,0.4,0.9,0.9,1.2,1.5c0.3,0.6,0.4,1.3,0.4,2.1c0,0.5-0.1,1-0.2,1.5c-0.1,0.4-0.3,0.8-0.5,1.2c-0.2,0.3-0.5,0.6-0.8,0.9
				c-0.3,0.3-0.6,0.5-0.9,0.6v0.1c0.5,0.2,1,0.4,1.4,0.7c0.4,0.3,0.7,0.7,1,1.1c0.3,0.4,0.5,0.9,0.6,1.4c0.1,0.5,0.2,1,0.2,1.6
				c0,0.9-0.2,1.7-0.5,2.4s-0.8,1.3-1.3,1.7c-0.6,0.5-1.2,0.8-2,1c-0.8,0.2-1.6,0.3-2.4,0.3h-4.9c-0.6,0-1.1-0.1-1.3-0.4
				c-0.3-0.3-0.4-0.7-0.4-1.3V10.3z M174.3,16.1c0.4,0,0.8-0.1,1.2-0.2s0.6-0.3,0.9-0.6s0.4-0.6,0.6-0.9c0.1-0.4,0.2-0.7,0.2-1.2
				s-0.1-0.8-0.2-1.2c-0.1-0.3-0.3-0.6-0.6-0.9c-0.2-0.2-0.5-0.4-0.9-0.6s-0.8-0.2-1.2-0.2h-3.7v5.8H174.3z M170.5,24.3
				c0,0.2,0.1,0.3,0.2,0.4c0.1,0.1,0.3,0.2,0.4,0.2h3.4c0.5,0,1-0.1,1.4-0.2c0.4-0.2,0.7-0.4,1-0.7c0.3-0.3,0.5-0.6,0.6-1
				c0.1-0.4,0.2-0.9,0.2-1.3c0-0.5-0.1-0.9-0.2-1.3s-0.4-0.8-0.7-1c-0.3-0.3-0.6-0.5-1-0.7c-0.4-0.2-0.8-0.2-1.3-0.2h-4V24.3z
				 M182.9,20.3c0-1.1,0.2-2,0.6-2.9c0.4-0.9,0.9-1.6,1.6-2.3c0.7-0.6,1.5-1.1,2.4-1.5s1.9-0.5,2.9-0.5s2,0.2,2.9,0.5
				c0.9,0.4,1.7,0.9,2.4,1.5c0.7,0.6,1.2,1.4,1.6,2.3s0.6,1.8,0.6,2.9s-0.2,2-0.6,2.9c-0.4,0.9-0.9,1.7-1.6,2.3
				c-0.7,0.6-1.5,1.2-2.4,1.5c-0.9,0.4-1.9,0.5-2.9,0.5s-2-0.2-2.9-0.5c-0.9-0.4-1.7-0.9-2.4-1.5c-0.7-0.6-1.2-1.4-1.6-2.3
				C183.1,22.3,182.9,21.4,182.9,20.3L182.9,20.3z M185.6,20.3c0,0.7,0.1,1.4,0.4,2c0.2,0.6,0.6,1.1,1,1.6s0.9,0.8,1.5,1
				c0.6,0.2,1.2,0.4,1.8,0.4c0.7,0,1.3-0.1,1.8-0.4c0.6-0.2,1.1-0.6,1.5-1s0.8-1,1-1.6c0.2-0.6,0.4-1.3,0.4-2s-0.1-1.4-0.4-2
				s-0.6-1.1-1-1.6s-0.9-0.8-1.5-1c-0.6-0.2-1.2-0.4-1.8-0.4c-0.7,0-1.3,0.1-1.8,0.4c-0.6,0.2-1.1,0.6-1.5,1s-0.8,1-1,1.6
				S185.6,19.6,185.6,20.3L185.6,20.3z M201.1,16.3c0-0.4-0.2-0.6-0.6-0.6h-1.1v-2.3h2.6c1.2,0,1.8,0.5,1.8,1.5v0.5
				c0,0.1,0,0.2,0,0.3s0,0.2,0,0.2c0,0.1,0,0.2,0,0.2h0.1c0.1-0.3,0.3-0.6,0.6-1c0.3-0.4,0.6-0.7,1.1-1c0.4-0.3,0.9-0.6,1.5-0.8
				c0.6-0.2,1.3-0.3,2-0.3c1.6,0,2.8,0.4,3.6,1.3c0.8,0.9,1.1,2.2,1.1,4v6c0,0.4,0.2,0.6,0.6,0.6h1.1v2.3h-2.6
				c-0.6,0-1.1-0.1-1.3-0.4c-0.3-0.3-0.4-0.7-0.4-1.3V19c0-0.5,0-0.9-0.1-1.4c-0.1-0.4-0.2-0.8-0.4-1.1c-0.2-0.3-0.4-0.6-0.8-0.7
				c-0.3-0.2-0.8-0.3-1.3-0.3c-0.5,0-1,0.1-1.5,0.2c-0.5,0.2-0.9,0.4-1.3,0.7c-0.4,0.3-0.7,0.7-1,1.1s-0.5,0.9-0.6,1.4
				c-0.1,0.3-0.2,0.6-0.2,0.9c0,0.3,0,0.6,0,1v6.5h-2.7V16.3z M216.9,20.3c0-1.1,0.2-2.1,0.5-3c0.3-0.9,0.7-1.7,1.3-2.3
				c0.6-0.6,1.2-1.1,2-1.5c0.8-0.3,1.6-0.5,2.5-0.5c0.4,0,0.8,0,1.1,0.1c0.3,0.1,0.6,0.1,0.9,0.2c0.3,0.1,0.5,0.2,0.7,0.3
				c0.2,0.1,0.4,0.3,0.6,0.4c0.4,0.3,0.7,0.7,0.9,1.1h0.1c0-0.1,0-0.2,0-0.3c0-0.1,0-0.2,0-0.3s0-0.2,0-0.4v-3.5
				c0-0.4-0.2-0.6-0.6-0.6h-1.1V7.9h2.6c0.6,0,1.1,0.1,1.3,0.4c0.3,0.3,0.4,0.7,0.4,1.3v14.7c0,0.4,0.2,0.6,0.6,0.6h1.1v2.3h-2.6
				c-0.6,0-1-0.1-1.3-0.4c-0.3-0.3-0.4-0.6-0.4-1.1v-0.3c0-0.1,0-0.2,0-0.2c0-0.1,0-0.1,0-0.2h-0.1c-0.2,0.5-0.6,0.9-1,1.3
				c-0.2,0.2-0.4,0.3-0.6,0.5c-0.2,0.1-0.5,0.3-0.8,0.4s-0.6,0.2-1,0.3c-0.4,0.1-0.7,0.1-1.2,0.1c-0.9,0-1.8-0.2-2.5-0.5
				c-0.8-0.4-1.4-0.8-1.9-1.5c-0.5-0.6-0.9-1.4-1.2-2.3C217.1,22.4,216.9,21.4,216.9,20.3L216.9,20.3z M223.6,25.3
				c0.5,0,1-0.1,1.5-0.3c0.5-0.2,0.9-0.5,1.3-0.9c0.4-0.4,0.7-0.9,0.9-1.6s0.3-1.4,0.3-2.3c0-0.6-0.1-1.2-0.2-1.8s-0.4-1.1-0.7-1.6
				c-0.3-0.5-0.7-0.8-1.2-1.1c-0.5-0.3-1.1-0.4-1.7-0.4c-0.5,0-1,0.1-1.5,0.3c-0.5,0.2-0.9,0.5-1.3,1s-0.6,0.9-0.9,1.6
				c-0.2,0.6-0.3,1.3-0.3,2.1c0,0.7,0.1,1.4,0.3,2c0.2,0.6,0.5,1.1,0.8,1.6c0.3,0.4,0.8,0.8,1.2,1C222.4,25.2,223,25.3,223.6,25.3
				L223.6,25.3z"/>
		</g>
	</g>
</g>
</svg>
