<?xml version="1.0" encoding="iso-8859-1"?>
<!-- Generator: Adobe Illustrator 19.0.0, SVG Export Plug-In . SVG Version: 6.00 Build 0)  -->
<svg version="1.1" id="Layer_1" xmlns="http://www.w3.org/2000/svg" xmlns:xlink="http://www.w3.org/1999/xlink" x="0px" y="0px"
	 viewBox="0 0 512 512" style="enable-background:new 0 0 512 512;" xml:space="preserve">
<g>
	<path style="fill:#FFBF25;" d="M240.297,173.834c-11.274,0-20.451,9.172-20.451,20.451s9.177,20.451,20.451,20.451
		s20.451-9.172,20.451-20.451S251.571,173.834,240.297,173.834z"/>
	<path style="fill:#FFBF25;" d="M138.042,102.255c0-11.279-9.177-20.451-20.451-20.451S97.14,90.976,97.14,102.255
		s9.177,20.451,20.451,20.451S138.042,113.534,138.042,102.255z"/>
	<path style="fill:#FFBF25;" d="M306.763,92.08c0-39.494-32.134-71.628-71.628-71.628H112.528C73.034,20.451,40.9,52.586,40.9,92.08
		v122.606c0,39.494,32.134,71.629,71.628,71.629h122.606c39.494,0,71.629-32.134,71.629-71.629v-51.078v-20.451V92.08z
		 M76.689,102.255c0-22.553,18.344-40.902,40.902-40.902s40.902,18.349,40.902,40.902s-18.344,40.902-40.902,40.902
		S76.689,124.808,76.689,102.255z M109.482,232.191c-1.997,1.997-4.613,2.996-7.23,2.996c-2.616,0-5.233-0.999-7.23-2.996
		c-3.994-3.994-3.994-10.465,0-14.459L247.547,65.203c3.994-3.994,10.465-3.994,14.459,0c3.994,3.994,3.994,10.465,0,14.459
		L109.482,232.191z M240.297,235.187c-22.558,0-40.902-18.349-40.902-40.902s18.344-40.902,40.902-40.902
		s40.902,18.349,40.902,40.902S262.855,235.187,240.297,235.187z"/>
</g>
<g>
	<path style="fill:#314E55;" d="M262.007,65.203c-3.994-3.994-10.465-3.994-14.459,0L95.023,217.732
		c-3.994,3.994-3.994,10.465,0,14.459c1.997,1.997,4.613,2.996,7.23,2.996c2.616,0,5.233-0.999,7.23-2.996L262.007,79.662
		C266.001,75.668,266.001,69.197,262.007,65.203z"/>
	<path style="fill:#314E55;" d="M240.297,153.383c-22.558,0-40.902,18.349-40.902,40.902s18.344,40.902,40.902,40.902
		s40.902-18.349,40.902-40.902S262.855,153.383,240.297,153.383z M240.297,214.736c-11.274,0-20.451-9.172-20.451-20.451
		s9.177-20.451,20.451-20.451s20.451,9.172,20.451,20.451S251.571,214.736,240.297,214.736z"/>
	<path style="fill:#314E55;" d="M158.493,102.255c0-22.553-18.344-40.902-40.902-40.902s-40.902,18.349-40.902,40.902
		s18.344,40.902,40.902,40.902S158.493,124.808,158.493,102.255z M97.14,102.255c0-11.279,9.177-20.451,20.451-20.451
		s20.451,9.172,20.451,20.451s-9.177,20.451-20.451,20.451S97.14,113.534,97.14,102.255z"/>
	<path style="fill:#314E55;" d="M488.556,422.242c-3.994-3.994-10.465-3.994-14.459,0l-54.852,54.847V163.608v-10.226v-10.226
		h-92.03V92.08c0-50.773-41.312-92.08-92.08-92.08H112.528c-50.768,0-92.08,41.306-92.08,92.08v122.606
		c0,50.773,41.312,92.08,92.08,92.08h122.606c50.768,0,92.08-41.306,92.08-92.08v-51.078h71.579V477.09l-54.852-54.847
		c-3.994-3.994-10.465-3.994-14.459,0s-3.994,10.465,0,14.459l72.308,72.303c1.997,1.997,4.613,2.996,7.23,2.996
		s5.233-0.998,7.23-2.996l72.308-72.303C492.55,432.707,492.55,426.237,488.556,422.242z M306.763,214.686
		c0,39.494-32.134,71.629-71.628,71.629H112.528c-39.494,0-71.628-32.134-71.628-71.629V92.08c0-39.494,32.134-71.628,71.628-71.628
		h122.606c39.494,0,71.629,32.134,71.629,71.628v51.078v20.451V214.686z"/>
</g>
<g>
</g>
<g>
</g>
<g>
</g>
<g>
</g>
<g>
</g>
<g>
</g>
<g>
</g>
<g>
</g>
<g>
</g>
<g>
</g>
<g>
</g>
<g>
</g>
<g>
</g>
<g>
</g>
<g>
</g>
</svg>
