<?xml version="1.0" encoding="iso-8859-1"?>
<!-- Generator: Adobe Illustrator 19.0.0, SVG Export Plug-In . SVG Version: 6.00 Build 0)  -->
<svg version="1.1" id="Layer_1" xmlns="http://www.w3.org/2000/svg" xmlns:xlink="http://www.w3.org/1999/xlink" x="0px" y="0px"
	 viewBox="0 0 512 512" style="enable-background:new 0 0 512 512;" xml:space="preserve">
<path style="fill:#4DB5FF;" d="M405,30H45C20.147,30,0,50.147,0,75v45l30,30h390l30-30V75C450,50.147,429.853,30,405,30z"/>
<path style="fill:#4D97FF;" d="M405,30H225v120h195l30-30V75C450,50.147,429.853,30,405,30z"/>
<path style="fill:#E6EEFF;" d="M0,120v315c0,8.284,6.716,15,15,15h420c8.284,0,15-6.716,15-15V120H0z"/>
<path style="fill:#DAE2F2;" d="M225,450h210c8.284,0,15-6.716,15-15V120H225V450z"/>
<g>
	<path style="fill:#A1A7B3;" d="M105,210H75c-8.291,0-15-6.709-15-15s6.709-15,15-15h30c8.291,0,15,6.709,15,15S113.291,210,105,210
		z"/>
	<path style="fill:#A1A7B3;" d="M195,210h-30c-8.291,0-15-6.709-15-15s6.709-15,15-15h30c8.291,0,15,6.709,15,15
		S203.291,210,195,210z"/>
</g>
<g>
	<path style="fill:#979CA7;" d="M285,210h-30c-8.291,0-15-6.709-15-15s6.709-15,15-15h30c8.291,0,15,6.709,15,15
		S293.291,210,285,210z"/>
	<path style="fill:#979CA7;" d="M375,210h-30c-8.291,0-15-6.709-15-15s6.709-15,15-15h30c8.291,0,15,6.709,15,15
		S383.291,210,375,210z"/>
</g>
<g>
	<path style="fill:#A1A7B3;" d="M105,270H75c-8.291,0-15-6.709-15-15s6.709-15,15-15h30c8.291,0,15,6.709,15,15
		C120,263.291,113.291,270,105,270z"/>
	<path style="fill:#A1A7B3;" d="M195,270h-30c-8.291,0-15-6.709-15-15s6.709-15,15-15h30c8.291,0,15,6.709,15,15
		C210,263.291,203.291,270,195,270z"/>
</g>
<path style="fill:#979CA7;" d="M285,270h-30c-8.291,0-15-6.709-15-15s6.709-15,15-15h30c8.291,0,15,6.709,15,15
	C300,263.291,293.291,270,285,270z"/>
<g>
	<path style="fill:#A1A7B3;" d="M105,330H75c-8.291,0-15-6.709-15-15s6.709-15,15-15h30c8.291,0,15,6.709,15,15S113.291,330,105,330
		z"/>
	<path style="fill:#A1A7B3;" d="M195,330h-30c-8.291,0-15-6.709-15-15s6.709-15,15-15h30c8.291,0,15,6.709,15,15
		S203.291,330,195,330z"/>
	<path style="fill:#A1A7B3;" d="M105,390H75c-8.291,0-15-6.709-15-15s6.709-15,15-15h30c8.291,0,15,6.709,15,15S113.291,390,105,390
		z"/>
	<path style="fill:#A1A7B3;" d="M195,390h-30c-8.291,0-15-6.709-15-15s6.709-15,15-15h30c8.291,0,15,6.709,15,15
		S203.291,390,195,390z"/>
</g>
<g>
	<path style="fill:#5C5F66;" d="M90,90c-8.291,0-15-6.709-15-15V15c0-8.291,6.709-15,15-15s15,6.709,15,15v60
		C105,83.291,98.291,90,90,90z"/>
	<path style="fill:#5C5F66;" d="M180,90c-8.291,0-15-6.709-15-15V15c0-8.291,6.709-15,15-15s15,6.709,15,15v60
		C195,83.291,188.291,90,180,90z"/>
</g>
<g>
	<path style="fill:#53565C;" d="M270,90c-8.291,0-15-6.709-15-15V15c0-8.291,6.709-15,15-15s15,6.709,15,15v60
		C285,83.291,278.291,90,270,90z"/>
	<path style="fill:#53565C;" d="M360,90c-8.291,0-15-6.709-15-15V15c0-8.291,6.709-15,15-15s15,6.709,15,15v60
		C375,83.291,368.291,90,360,90z"/>
</g>
<path style="fill:#A780FF;" d="M377,512c-74.443,0-135-60.557-135-135s60.557-135,135-135s135,60.557,135,135S451.443,512,377,512z"
	/>
<path style="fill:#9466FF;" d="M512,377c0-74.443-60.557-135-135-135v270C451.443,512,512,451.443,512,377z"/>
<path style="fill:#E6EEFF;" d="M377,272c-57.891,0-105,47.109-105,105s47.109,105,105,105s105-47.109,105-105S434.891,272,377,272z"
	/>
<path style="fill:#DAE2F2;" d="M482,377c0-57.891-47.109-105-105-105v210C434.891,482,482,434.891,482,377z"/>
<path style="fill:#5C5F66;" d="M437,392h-60c-8.291,0-15-6.709-15-15v-60c0-8.291,6.709-15,15-15s15,6.709,15,15v45h45
	c8.291,0,15,6.709,15,15S445.291,392,437,392z"/>
<path style="fill:#53565C;" d="M437,392c8.291,0,15-6.709,15-15s-6.709-15-15-15h-45v-45c0-8.291-6.709-15-15-15v90H437z"/>
<g>
</g>
<g>
</g>
<g>
</g>
<g>
</g>
<g>
</g>
<g>
</g>
<g>
</g>
<g>
</g>
<g>
</g>
<g>
</g>
<g>
</g>
<g>
</g>
<g>
</g>
<g>
</g>
<g>
</g>
</svg>
